<svg data-v-423bf9ae="" xmlns="http://www.w3.org/2000/svg" viewBox="0 0 450 101" class="iconLeftSlogan"><!----><defs data-v-423bf9ae=""><linearGradient data-v-423bf9ae="" gradientTransform="rotate(25)" id="073b8d9d-e647-4062-9f50-a90e27d90c1c" x1="0%" y1="0%" x2="100%" y2="0%"><stop data-v-423bf9ae="" offset="0%" style="stop-color: rgb(233, 0, 127); stop-opacity: 1;"></stop><stop data-v-423bf9ae="" offset="100%" style="stop-color: rgb(254, 161, 52); stop-opacity: 1;"></stop></linearGradient></defs><!----><g data-v-423bf9ae="" id="d50ae15c-77ee-45e9-a409-ac1333d94c26" fill="#ffffff" transform="matrix(4.420912301668891,0,0,4.420912301668891,118.41944274294792,-0.044208400645548096)"><path d="M7.03 7.25C6.90 10.14 5.19 10.15 2.94 10.14L2.44 10.14L2.44 1.82C2.44 0.81 2.73 0.57 3.33 0.57L3.33 0.43L0.56 0.43L0.56 0.57C1.16 0.57 1.33 0.88 1.33 1.74L1.33 8.69C1.33 9.65 1.27 10.14 0.67 10.14L0.67 10.29L7.17 10.29L7.17 7.25ZM9.87 6.76C9.87 4.80 10.91 3.85 11.70 3.85C12.32 3.85 13.40 4.59 13.40 6.76ZM14.01 8.61C13.79 9.32 12.88 9.95 11.98 9.91C10.81 9.86 9.90 9.07 9.87 6.93L14.35 6.93C14.35 4.72 13.16 3.70 11.72 3.70C10.09 3.70 8.79 5.01 8.79 7.13C8.79 9.09 10.04 10.42 11.73 10.42C13.27 10.42 14.03 9.28 14.13 8.65ZM19.04 6.78C19.04 6.78 19.04 8.95 19.04 8.95C18.89 9.28 18.52 9.90 17.65 9.90C16.83 9.90 16.45 9.31 16.45 8.71C16.45 7.80 17.29 7.20 19.04 6.78ZM20.65 9.86C20.03 9.86 20.05 9.02 20.05 9.02L20.05 6.50C20.05 4.83 19.67 3.70 18.30 3.70C18.30 3.70 17.63 3.67 17.04 3.96C16.30 4.37 16.03 4.80 15.95 5.00C15.86 5.18 15.89 5.42 16.03 5.60C16.23 5.87 16.59 5.89 16.83 5.70C17.08 5.49 17.14 5.12 16.93 4.87C16.83 4.75 16.69 4.69 16.55 4.66C16.46 4.65 16.56 4.35 17.16 4.07C18.35 3.54 19.04 4.40 19.04 5.84L19.04 6.62C16.67 7.24 15.48 7.63 15.48 8.96C15.48 10.42 17.07 10.42 17.07 10.42C18.05 10.42 18.84 9.91 19.04 9.21C19.08 10.46 20.12 10.42 20.12 10.42C20.78 10.42 21.15 9.90 21.24 9.48L21.10 9.42C21 9.86 20.65 9.86 20.65 9.86ZM26.91 8.41C26.91 9.39 26.15 10.05 25.24 10.05C23.98 10.05 23.16 8.95 23.16 6.75C23.16 4.44 24.33 3.85 25.21 3.85C26.08 3.85 26.91 4.58 26.91 5.73ZM28.57 10.02C28.01 10.05 27.86 10.01 27.86 9.32L27.86 0.01L26.19 0.32L26.19 0.48C26.77 0.53 26.91 0.74 26.91 1.23L26.91 4.26C26.46 3.92 25.87 3.70 25.17 3.70C23.35 3.70 21.97 4.84 21.97 6.99C21.97 8.81 22.88 10.42 24.89 10.42C25.61 10.42 26.49 10.09 26.91 9.44L26.91 10.15C26.91 10.15 26.91 10.47 27.30 10.40L28.57 10.16ZM30.18 2.51C30.51 2.51 30.79 2.24 30.79 1.92C30.79 1.58 30.51 1.32 30.18 1.32C29.85 1.32 29.60 1.58 29.60 1.92C29.60 2.24 29.85 2.51 30.18 2.51ZM31.37 10.14C30.87 10.01 30.80 9.97 30.80 9.20L30.80 3.70L29.15 4.02L29.15 4.16C29.74 4.24 29.85 4.44 29.85 4.91L29.85 9.20C29.85 9.91 29.82 9.98 29.29 10.14L29.29 10.29L31.37 10.29ZM38.37 10.15C37.87 10.02 37.80 9.97 37.80 9.20L37.80 5.98C37.80 4.30 36.93 3.70 35.78 3.70C34.90 3.70 33.99 4.35 33.71 5.14L33.71 3.70L32.05 4.02L32.05 4.16C32.63 4.24 32.75 4.44 32.75 4.93L32.75 9.20C32.75 9.91 32.72 9.98 32.19 10.14L32.19 10.29L34.29 10.29L34.29 10.14C33.78 10.01 33.71 9.97 33.71 9.20L33.71 5.46C33.88 4.98 34.45 4.23 35.25 4.23C36.29 4.23 36.85 4.94 36.85 6.03L36.85 9.20C36.85 9.91 36.82 10.00 36.29 10.15L36.29 10.29L38.37 10.29L38.37 10.15ZM43.75 5.85C43.75 7.42 42.80 7.88 42.15 7.88C41.54 7.88 40.59 7.42 40.59 5.85C40.59 4.28 41.45 3.85 42.15 3.85C42.76 3.85 43.75 4.28 43.75 5.85ZM45.81 4.62C46.06 4.44 46.12 4.09 45.92 3.84C45.79 3.67 45.57 3.60 45.35 3.61C45.02 3.63 44.46 3.85 44.11 4.37C43.67 3.95 42.94 3.70 42.15 3.70C40.60 3.70 39.58 4.72 39.58 5.85C39.58 6.59 39.90 7.38 40.66 7.71C39.38 8.02 39.47 9.16 39.47 9.16C39.47 9.59 39.62 9.97 40.04 10.18C39.07 10.78 38.56 11.77 39.09 12.68C39.68 13.71 41.72 13.96 43.60 12.89C45.07 12.07 45.11 11.02 45.11 11.02C45.35 9.32 43.62 9.45 42.66 9.45L41.12 9.45C39.37 9.45 40.01 7.87 40.80 7.78C41.17 7.95 41.61 8.04 42.15 8.04C43.74 8.04 44.76 6.99 44.76 5.85C44.76 5.35 44.58 4.80 44.21 4.45C44.48 4.05 44.97 4.00 44.94 4.12C44.90 4.26 44.94 4.41 45.02 4.54C45.22 4.77 45.57 4.82 45.81 4.62ZM39.93 12.43C39.97 12.47 38.84 11.21 40.19 10.26C40.66 10.43 41.19 10.42 41.34 10.42L43.30 10.42C44.59 10.42 44.60 11.13 44.60 11.13C44.60 11.13 44.69 12.01 43.51 12.75C42.31 13.51 40.53 13.15 39.93 12.43ZM52.99 7.45C52.85 10.23 50.99 10.14 49.11 10.14L48.40 10.14L48.40 5.39L49.52 5.39C50.05 5.39 51.25 5.40 51.30 6.79L51.45 6.79L51.45 3.85L51.30 3.85C51.25 5.22 50.08 5.24 49.52 5.24L48.40 5.24L48.40 0.59L49.29 0.59C51.00 0.59 52.74 0.62 52.81 2.88L52.96 2.88L52.96 0.43L46.54 0.43L46.54 0.59C47.15 0.59 47.25 0.84 47.25 1.71L47.25 8.79C47.25 9.74 47.12 10.14 46.54 10.14L46.54 10.29L53.14 10.29L53.14 7.45ZM59.67 8.41C59.67 9.39 58.91 10.05 58.00 10.05C56.74 10.05 55.92 8.95 55.92 6.75C55.92 4.44 57.09 3.85 57.97 3.85C58.84 3.85 59.67 4.58 59.67 5.73ZM61.33 10.02C60.77 10.05 60.62 10.01 60.62 9.32L60.62 0.01L58.95 0.32L58.95 0.48C59.53 0.53 59.67 0.74 59.67 1.23L59.67 4.26C59.22 3.92 58.63 3.70 57.93 3.70C56.11 3.70 54.73 4.84 54.73 6.99C54.73 8.81 55.64 10.42 57.65 10.42C58.37 10.42 59.25 10.09 59.67 9.44L59.67 10.15C59.67 10.15 59.67 10.47 60.06 10.40L61.33 10.16ZM66.54 5.85C66.54 7.42 65.59 7.88 64.95 7.88C64.33 7.88 63.38 7.42 63.38 5.85C63.38 4.28 64.25 3.85 64.95 3.85C65.55 3.85 66.54 4.28 66.54 5.85ZM68.60 4.62C68.85 4.44 68.91 4.09 68.71 3.84C68.59 3.67 68.36 3.60 68.14 3.61C67.82 3.63 67.26 3.85 66.91 4.37C66.46 3.95 65.73 3.70 64.95 3.70C63.39 3.70 62.37 4.72 62.37 5.85C62.37 6.59 62.69 7.38 63.45 7.71C62.17 8.02 62.26 9.16 62.26 9.16C62.26 9.59 62.41 9.97 62.83 10.18C61.87 10.78 61.35 11.77 61.88 12.68C62.47 13.71 64.51 13.96 66.39 12.89C67.86 12.07 67.90 11.02 67.90 11.02C68.14 9.32 66.42 9.45 65.45 9.45L63.91 9.45C62.16 9.45 62.80 7.87 63.59 7.78C63.97 7.95 64.40 8.04 64.95 8.04C66.53 8.04 67.55 6.99 67.55 5.85C67.55 5.35 67.37 4.80 67.00 4.45C67.27 4.05 67.76 4.00 67.73 4.12C67.69 4.26 67.73 4.41 67.82 4.54C68.01 4.77 68.36 4.82 68.60 4.62ZM62.72 12.43C62.76 12.47 61.63 11.21 62.99 10.26C63.45 10.43 63.98 10.42 64.13 10.42L66.09 10.42C67.38 10.42 67.40 11.13 67.40 11.13C67.40 11.13 67.48 12.01 66.30 12.75C65.10 13.51 63.32 13.15 62.72 12.43ZM70.48 6.76C70.48 4.80 71.51 3.85 72.31 3.85C72.93 3.85 74.00 4.59 74.00 6.76ZM74.62 8.61C74.40 9.32 73.49 9.95 72.59 9.91C71.41 9.86 70.50 9.07 70.48 6.93L74.96 6.93C74.96 4.72 73.77 3.70 72.32 3.70C70.70 3.70 69.40 5.01 69.40 7.13C69.40 9.09 70.64 10.42 72.34 10.42C73.88 10.42 74.63 9.28 74.73 8.65Z"></path></g><!----><g data-v-423bf9ae="" id="706398c3-8235-44e3-9df7-a839818d1656" transform="matrix(1.0587999131944446,0,0,1.0587999131944446,-1.5859915291683606,-1.5859915291683606)" stroke="none" fill="#ffffff"><path d="M29.352 38.349h6.998v32.299h-6.998zM63.651 29.351h6.998V61.65h-6.998zM29.352 72.649h50.296v6.998H29.352zM20.353 81.648h68.294v6.998H20.353zM11.354 90.647h86.292v6.998H11.354zM2.354 2.354h86.292v6.998H2.354zM11.354 11.354h68.294v6.998H11.354zM20.353 20.353h50.296v6.998H20.353zM72.649 20.352h6.998v50.296h-6.998zM81.648 11.353h6.998v68.295h-6.998zM90.647 2.354h6.998v86.292h-6.998zM2.355 11.353h6.998v86.293H2.355zM11.354 20.352h6.998v68.294h-6.998zM20.353 29.351h6.998v50.297h-6.998zM38.35 38.35h14.304v6.998H38.35zM38.35 47.348h6.998v14.303H38.35zM54.654 38.35h6.998v14.303h-6.998zM47.349 54.652h14.304v6.998H47.349zM38.35 63.65h32.3v6.998h-32.3zM29.352 29.351h32.3v6.998h-32.3z"></path></g><!----><g data-v-423bf9ae="" id="a7858d45-7f21-42bf-bcf6-aec8dcd53dd3" fill="#ffffff" transform="matrix(1.5850849108818712,0,0,1.5850849108818712,121.81067721162293,58.421419695021996)"><path d="M1.01 8.44L1.01 8.44Q1.23 6.78 1.54 5.58L1.54 5.58L1.54 5.58Q2.05 3.70 2.86 2.76L2.86 2.76L2.86 2.76Q2.94 2.68 3.07 2.57L3.07 2.57L3.07 2.57Q3.29 2.93 3.38 3.49L3.38 3.49L3.38 3.49Q3.53 4.40 3.27 5.73L3.27 5.73L3.27 5.73Q2.79 8.34 1.44 10.03L1.44 10.03L1.44 10.03Q1.40 10.08 1.37 10.12L1.37 10.12L1.37 10.12Q1.18 10.17 1.04 10.23L1.04 10.23L1.04 10.23Q0.97 10.10 0.93 9.86L0.93 9.86L0.93 9.86Q0.87 9.50 1.01 8.44L1.01 8.44ZM4.83 13.47L4.83 13.47Q4.80 13.26 4.15 13.36L4.15 13.36L4.15 13.36Q4.12 13.38 4.09 13.36L4.09 13.36L4.09 13.36Q4.09 13.36 4.10 13.36L4.10 13.36L4.10 13.36Q4.05 13.35 3.97 13.33L3.97 13.33L3.97 13.33Q3.81 13.28 3.60 13.10L3.60 13.10L3.60 13.10Q3.27 12.83 2.98 12.24L2.98 12.24L2.98 12.24Q2.84 11.96 2.36 10.45L2.36 10.45L2.36 10.45Q2.73 10.14 3.09 9.64L3.09 9.64L3.09 9.64Q3.67 8.83 4.15 7.60L4.15 7.60L4.15 7.60Q4.62 6.41 4.82 5.17L4.82 5.17L4.82 5.17Q5.02 3.91 4.83 2.99L4.83 2.99L4.83 2.99Q4.62 2.08 4.00 1.69L4.00 1.69L4.00 1.69Q3.73 1.52 3.05 1.70L3.05 1.70L3.05 1.70Q2.90 1.73 2.71 1.83L2.71 1.83L2.71 1.83Q2.44 1.97 2.58 2.06L2.58 2.06L2.58 2.06Q2.56 2.04 2.60 2.08L2.60 2.08L2.60 2.08Q2.39 2.13 2.24 2.22L2.24 2.22L2.24 2.22Q1.11 2.88 0.45 4.59L0.45 4.59L0.45 4.59Q-0.01 5.78-0.33 7.70L-0.33 7.70L-0.33 7.70Q-0.39 8.03-0.51 8.95L-0.51 8.95L-0.51 8.95Q-0.65 9.93-0.50 10.39L-0.50 10.39L-0.50 10.39Q-0.23 11.18 0.96 11.02L0.96 11.02L0.96 11.02Q1.35 12.28 1.64 12.79L1.64 12.79L1.64 12.79Q1.98 13.38 2.42 13.64L2.42 13.64L2.42 13.64Q3.03 13.99 4.12 13.82L4.12 13.82L4.12 13.82Q4.87 13.71 4.83 13.47L4.83 13.47ZM16.35 2.21L16.35 2.21Q15.72 2.38 15.68 2.63L15.68 2.63L15.68 2.63Q15.63 3.01 15.47 4.51L15.47 4.51L15.47 4.51Q15.35 5.69 15.21 6.41L15.21 6.41L15.21 6.41Q14.81 8.57 13.71 9.83L13.71 9.83L13.71 9.83Q13.56 10.00 13.45 10.12L13.45 10.12L13.45 10.12Q13.19 9.61 13.15 8.40L13.15 8.40L13.15 8.40Q13.09 6.90 14.01 4.58L14.01 4.58L14.01 4.58Q14.70 2.88 14.86 2.40L14.86 2.40L14.86 2.40Q14.95 2.15 14.28 2.26L14.28 2.26L14.28 2.26Q13.51 2.41 13.42 2.66L13.42 2.66L13.42 2.66Q13.25 3.12 12.70 4.53L12.70 4.53L12.70 4.53Q12.24 5.71 12.02 6.43L12.02 6.43L12.02 6.43Q11.36 8.66 11.93 10.36L11.93 10.36L11.93 10.36Q12.03 10.68 12.23 10.83L12.23 10.83L12.23 10.83Q12.46 11.03 13.10 10.92L13.10 10.92L13.10 10.92Q14.12 10.73 15.03 9.71L15.03 9.71L15.03 9.71Q16.19 8.41 16.63 6.34L16.63 6.34L16.63 6.34Q16.78 5.55 16.92 4.29L16.92 4.29L16.92 4.29Q17.10 2.58 17.14 2.24L17.14 2.24L17.14 2.24Q17.16 2.11 16.78 2.14L16.78 2.14L16.78 2.14Q16.52 2.16 16.35 2.21L16.35 2.21ZM26.50 7.89L26.50 7.89Q26.40 7.90 25.50 7.84L25.50 7.84L25.50 7.84Q25.91 6.63 26.37 5.57L26.37 5.57L26.37 5.57Q26.53 5.18 27.08 3.95L27.08 3.95L27.08 3.95Q27.06 4.61 26.87 7.85L26.87 7.85L26.87 7.85Q26.70 7.87 26.50 7.89L26.50 7.89ZM28.31 1.18L28.31 1.18Q28.13 1.09 27.75 1.16L27.75 1.16L27.75 1.16Q27.10 1.27 26.89 1.55L26.89 1.55L26.89 1.55Q26.69 1.80 25.92 3.58L25.92 3.58L25.92 3.58Q25.78 3.90 25.42 4.70L25.42 4.70L25.42 4.70Q25.10 5.42 24.92 5.83L24.92 5.83L24.92 5.83Q24.51 6.79 24.13 7.86L24.13 7.86L24.13 7.86Q23.21 7.97 22.56 8.37L22.56 8.37L22.56 8.37Q22.38 8.48 22.41 8.58L22.41 8.58L22.41 8.58Q22.44 8.67 22.64 8.68L22.64 8.68L22.64 8.68Q23.16 8.70 23.63 8.43L23.63 8.43L23.63 8.43Q23.78 8.41 23.82 8.41L23.82 8.41L23.82 8.41Q23.88 8.41 23.95 8.41L23.95 8.41L23.95 8.41Q23.63 9.39 23.30 10.53L23.30 10.53L23.30 10.53Q23.24 10.79 23.89 10.67L23.89 10.67L23.89 10.67Q24.19 10.62 24.45 10.49L24.45 10.49L24.45 10.49Q24.72 10.37 24.75 10.27L24.75 10.27L24.75 10.27Q25.01 9.32 25.29 8.48L25.29 8.48L25.29 8.48Q25.58 8.50 25.78 8.47L25.78 8.47L25.78 8.47Q26.48 8.39 26.84 8.46L26.84 8.46L26.84 8.46Q26.73 10.55 26.73 12.02L26.73 12.02L26.73 12.02Q26.73 12.10 26.95 12.11L26.95 12.11L26.95 12.11Q27.17 12.12 27.46 12.06L27.46 12.06L27.46 12.06Q28.19 11.91 28.19 11.62L28.19 11.62L28.19 11.62Q28.19 9.90 28.40 6.45L28.40 6.45L28.40 6.45Q28.59 3.00 28.59 1.27L28.59 1.27L28.59 1.27Q28.59 1.18 28.31 1.18L28.31 1.18ZM38.45 11.33L38.45 11.33Q37.41 11.36 36.96 11.16L36.96 11.16L36.96 11.16Q37.82 6.57 38.93 2.08L38.93 2.08L38.93 2.08Q39.00 1.83 38.35 1.95L38.35 1.95L38.35 1.95Q38.05 2.00 37.80 2.12L37.80 2.12L37.80 2.12Q37.52 2.25 37.50 2.34L37.50 2.34L37.50 2.34Q36.37 6.83 35.51 11.47L35.51 11.47L35.51 11.47Q35.42 11.56 35.49 11.61L35.49 11.61L35.49 11.61Q35.49 11.63 35.49 11.70L35.49 11.70L35.49 11.70Q35.48 11.74 35.47 11.78L35.47 11.78L35.47 11.78Q35.45 11.94 36.09 11.83L36.09 11.83L36.09 11.83Q36.59 11.95 37.50 11.92L37.50 11.92L37.50 11.92Q38.10 11.91 38.53 11.65L38.53 11.65L38.53 11.65Q38.71 11.54 38.68 11.44L38.68 11.44L38.68 11.44Q38.66 11.33 38.45 11.33L38.45 11.33ZM47.34 2.53L47.34 2.53Q47.09 3.62 46.48 6.79L46.48 6.79L46.48 6.79Q46.24 8.03 46.05 8.93L46.05 8.93L46.05 8.93Q45.66 10.78 45.65 10.91L45.65 10.91L45.65 10.91Q45.65 10.99 45.88 11.00L45.88 11.00L45.88 11.00Q46.09 11.01 46.38 10.96L46.38 10.96L46.38 10.96Q47.11 10.81 47.11 10.52L47.11 10.52L47.11 10.52Q47.12 10.23 47.28 9.62L47.28 9.62L47.28 9.62Q47.35 9.32 47.51 8.57L47.51 8.57L47.51 8.57Q47.68 7.77 47.94 6.44L47.94 6.44L47.94 6.44Q48.54 3.36 48.78 2.27L48.78 2.27L48.78 2.27Q48.84 2.02 48.19 2.13L48.19 2.13L48.19 2.13Q47.89 2.19 47.64 2.31L47.64 2.31L47.64 2.31Q47.36 2.44 47.34 2.53L47.34 2.53ZM60.28 2.35L60.28 2.35Q59.32 2.17 58.32 2.15L58.32 2.15L58.32 2.15Q58.22 2.03 57.74 2.11L57.74 2.11L57.74 2.11Q57.65 2.13 57.53 2.16L57.53 2.16L57.53 2.16Q56.46 2.22 55.43 2.46L55.43 2.46L55.43 2.46Q54.69 2.63 54.76 2.88L54.76 2.88L54.76 2.88Q54.80 3.08 55.53 2.91L55.53 2.91L55.53 2.91Q55.54 2.91 55.55 2.90L55.55 2.90L55.55 2.90Q55.56 2.90 55.58 2.89L55.58 2.89L55.58 2.89Q55.65 2.88 55.81 2.85L55.81 2.85L55.81 2.85Q55.97 2.82 56.20 2.80L56.20 2.80L56.20 2.80Q56.49 2.76 56.81 2.75L56.81 2.75L56.81 2.75Q55.40 7.40 55.00 10.96L55.00 10.96L55.00 10.96Q55.00 11.02 55.22 11.03L55.22 11.03L55.22 11.03Q55.43 11.04 55.71 10.99L55.71 10.99L55.71 10.99Q56.44 10.86 56.46 10.56L56.46 10.56L56.46 10.56Q56.84 7.19 58.16 2.78L58.16 2.78L58.16 2.78Q58.63 2.82 59.07 2.91L59.07 2.91L59.07 2.91Q59.51 2.99 60.09 2.72L60.09 2.72L60.09 2.72Q60.25 2.65 60.35 2.54L60.35 2.54L60.35 2.54Q60.49 2.39 60.28 2.35L60.28 2.35ZM71.86 1.12L71.86 1.12Q71.83 0.90 71.09 1.07L71.09 1.07L71.09 1.07Q70.36 1.25 70.40 1.51L70.40 1.51L70.40 1.51Q70.58 2.73 70.36 4.12L70.36 4.12L70.36 4.12Q70.09 5.76 69.34 6.75L69.34 6.75L69.34 6.75Q69.19 6.95 68.93 7.16L68.93 7.16L68.93 7.16Q68.87 7.23 68.76 7.29L68.76 7.29L68.76 7.29Q68.76 7.29 68.68 7.34L68.68 7.34L68.67 7.34L68.67 7.34Q68.67 7.34 68.67 7.34L68.67 7.34L68.67 7.34Q68.60 7.36 68.53 7.38L68.53 7.38L68.52 7.37L68.52 7.37Q68.52 7.37 68.51 7.37L68.51 7.37L68.51 7.37Q68.48 7.36 68.41 7.35L68.41 7.35L68.41 7.35Q68.40 7.35 68.37 7.33L68.37 7.33L68.37 7.33Q68.37 7.33 68.35 7.33L68.35 7.33L68.35 7.33Q67.75 7.06 67.76 5.83L67.76 5.83L67.76 5.83Q67.76 4.47 68.72 1.59L68.72 1.59L68.72 1.59Q68.80 1.34 68.13 1.46L68.13 1.46L68.13 1.46Q67.36 1.60 67.28 1.85L67.28 1.85L67.28 1.85Q66.41 4.44 66.31 5.87L66.31 5.87L66.31 5.87Q66.21 7.12 66.73 7.65L66.73 7.65L66.73 7.65Q67.00 7.94 67.61 7.96L67.61 7.96L67.61 7.96Q67.75 7.97 67.91 7.96L67.91 7.96L67.91 7.96Q67.85 8.59 67.33 10.68L67.33 10.68L67.33 10.68Q67.27 10.94 67.91 10.82L67.91 10.82L67.91 10.82Q68.22 10.77 68.47 10.65L68.47 10.65L68.47 10.65Q68.75 10.52 68.77 10.42L68.77 10.42L68.77 10.42Q69.31 8.28 69.37 7.59L69.37 7.59L69.37 7.59Q69.41 7.57 69.42 7.57L69.42 7.57L69.42 7.57Q71.00 6.90 71.62 4.67L71.62 4.67L71.62 4.67Q72.13 2.84 71.86 1.12L71.86 1.12ZM95.42 2.21L95.42 2.21Q95.38 2.05 94.82 2.15L94.82 2.15L94.82 2.15Q94.12 2.28 93.96 2.54L93.96 2.54L93.96 2.54Q93.08 4.03 92.15 6.51L92.15 6.51L92.15 6.41L92.15 6.41Q92.15 5.55 91.98 2.12L91.98 2.12L91.98 2.12Q91.98 2.03 91.75 2.02L91.75 2.02L91.75 2.02Q91.60 1.92 91.18 2.00L91.18 2.00L91.18 2.00Q90.47 2.13 90.33 2.39L90.33 2.39L90.33 2.39Q88.20 6.30 87.59 11.14L87.59 11.14L87.59 11.14Q87.58 11.27 87.96 11.23L87.96 11.23L87.96 11.23Q88.20 11.21 88.38 11.16L88.38 11.16L88.38 11.16Q89.02 10.99 89.05 10.75L89.05 10.75L89.05 10.75Q89.46 7.51 90.62 4.58L90.62 4.58L90.62 4.58Q90.68 5.81 90.69 6.71L90.69 6.71L90.69 6.71Q90.69 8.26 90.61 8.86L90.61 8.86L90.61 8.86Q90.43 10.15 90.42 10.99L90.42 10.99L90.42 10.99Q90.42 11.20 91.10 11.03L91.10 11.03L91.10 11.03Q91.78 10.86 91.87 10.66L91.87 10.66L91.87 10.66Q92.35 9.61 93.06 7.67L93.06 7.67L93.06 7.67Q93.85 5.54 94.22 4.66L94.22 4.66L94.22 4.66Q94.26 5.91 94.02 7.85L94.02 7.85L94.02 7.85Q93.69 10.57 93.65 11.04L93.65 11.04L93.65 11.04Q93.65 11.12 93.86 11.12L93.86 11.12L93.86 11.12Q94.08 11.13 94.36 11.08L94.36 11.08L94.36 11.08Q95.09 10.94 95.12 10.65L95.12 10.65L95.12 10.65Q95.17 9.88 95.35 8.54L95.35 8.54L95.35 8.54Q95.54 7.03 95.60 6.43L95.60 6.43L95.60 6.43Q95.84 3.95 95.42 2.21L95.42 2.21ZM105.62 7.89L105.62 7.89Q105.52 7.90 104.62 7.84L104.62 7.84L104.62 7.84Q105.03 6.63 105.49 5.57L105.49 5.57L105.49 5.57Q105.65 5.18 106.20 3.95L106.20 3.95L106.20 3.95Q106.18 4.61 105.99 7.85L105.99 7.85L105.99 7.85Q105.82 7.87 105.62 7.89L105.62 7.89ZM107.43 1.18L107.43 1.18Q107.25 1.09 106.87 1.16L106.87 1.16L106.87 1.16Q106.22 1.27 106.01 1.55L106.01 1.55L106.01 1.55Q105.81 1.80 105.03 3.58L105.03 3.58L105.03 3.58Q104.90 3.90 104.54 4.70L104.54 4.70L104.54 4.70Q104.22 5.42 104.04 5.83L104.04 5.83L104.04 5.83Q103.63 6.79 103.25 7.86L103.25 7.86L103.25 7.86Q102.33 7.97 101.68 8.37L101.68 8.37L101.68 8.37Q101.50 8.48 101.53 8.58L101.53 8.58L101.53 8.58Q101.55 8.67 101.76 8.68L101.76 8.68L101.76 8.68Q102.28 8.70 102.75 8.43L102.75 8.43L102.75 8.43Q102.89 8.41 102.94 8.41L102.94 8.41L102.94 8.41Q103.00 8.41 103.07 8.41L103.07 8.41L103.07 8.41Q102.74 9.39 102.42 10.53L102.42 10.53L102.42 10.53Q102.35 10.79 103.01 10.67L103.01 10.67L103.01 10.67Q103.31 10.62 103.56 10.49L103.56 10.49L103.56 10.49Q103.84 10.37 103.87 10.27L103.87 10.27L103.87 10.27Q104.13 9.32 104.41 8.48L104.41 8.48L104.41 8.48Q104.70 8.50 104.90 8.47L104.90 8.47L104.90 8.47Q105.60 8.39 105.96 8.46L105.96 8.46L105.96 8.46Q105.85 10.55 105.85 12.02L105.85 12.02L105.85 12.02Q105.85 12.10 106.07 12.11L106.07 12.11L106.07 12.11Q106.29 12.12 106.58 12.06L106.58 12.06L106.58 12.06Q107.31 11.91 107.31 11.62L107.31 11.62L107.31 11.62Q107.31 9.90 107.52 6.45L107.52 6.45L107.52 6.45Q107.71 3.00 107.71 1.27L107.71 1.27L107.71 1.27Q107.71 1.18 107.43 1.18L107.43 1.18ZM119.98 2.35L119.98 2.35Q119.02 2.17 118.02 2.15L118.02 2.15L118.02 2.15Q117.92 2.03 117.44 2.11L117.44 2.11L117.44 2.11Q117.35 2.13 117.23 2.16L117.23 2.16L117.23 2.16Q116.16 2.22 115.12 2.46L115.12 2.46L115.12 2.46Q114.39 2.63 114.45 2.88L114.45 2.88L114.45 2.88Q114.50 3.08 115.23 2.91L115.23 2.91L115.23 2.91Q115.23 2.91 115.25 2.90L115.25 2.90L115.25 2.90Q115.26 2.90 115.27 2.89L115.27 2.89L115.27 2.89Q115.35 2.88 115.51 2.85L115.51 2.85L115.51 2.85Q115.67 2.82 115.90 2.80L115.90 2.80L115.90 2.80Q116.18 2.76 116.51 2.75L116.51 2.75L116.51 2.75Q115.10 7.40 114.70 10.96L114.70 10.96L114.70 10.96Q114.69 11.02 114.92 11.03L114.92 11.03L114.92 11.03Q115.13 11.04 115.41 10.99L115.41 10.99L115.41 10.99Q116.14 10.86 116.16 10.56L116.16 10.56L116.16 10.56Q116.54 7.19 117.86 2.78L117.86 2.78L117.86 2.78Q118.33 2.82 118.77 2.91L118.77 2.91L118.77 2.91Q119.21 2.99 119.79 2.72L119.79 2.72L119.79 2.72Q119.95 2.65 120.05 2.54L120.05 2.54L120.05 2.54Q120.19 2.39 119.98 2.35L119.98 2.35ZM130.55 2.35L130.55 2.35Q129.59 2.17 128.58 2.15L128.58 2.15L128.58 2.15Q128.49 2.03 128.01 2.11L128.01 2.11L128.01 2.11Q127.91 2.13 127.80 2.16L127.80 2.16L127.80 2.16Q126.73 2.22 125.69 2.46L125.69 2.46L125.69 2.46Q124.95 2.63 125.02 2.88L125.02 2.88L125.02 2.88Q125.07 3.08 125.79 2.91L125.79 2.91L125.79 2.91Q125.80 2.91 125.82 2.90L125.82 2.90L125.82 2.90Q125.83 2.90 125.84 2.89L125.84 2.89L125.84 2.89Q125.92 2.88 126.08 2.85L126.08 2.85L126.08 2.85Q126.24 2.82 126.46 2.80L126.46 2.80L126.46 2.80Q126.75 2.76 127.08 2.75L127.08 2.75L127.08 2.75Q125.67 7.40 125.27 10.96L125.27 10.96L125.27 10.96Q125.26 11.02 125.49 11.03L125.49 11.03L125.49 11.03Q125.70 11.04 125.98 10.99L125.98 10.99L125.98 10.99Q126.70 10.86 126.73 10.56L126.73 10.56L126.73 10.56Q127.11 7.19 128.43 2.78L128.43 2.78L128.43 2.78Q128.90 2.82 129.34 2.91L129.34 2.91L129.34 2.91Q129.77 2.99 130.36 2.72L130.36 2.72L130.36 2.72Q130.52 2.65 130.61 2.54L130.61 2.54L130.61 2.54Q130.76 2.39 130.55 2.35L130.55 2.35ZM140.96 1.42L140.96 1.42Q140.25 1.19 139.07 1.57L139.07 1.57L139.07 1.57Q137.56 2.06 137.00 3.77L137.00 3.77L137.00 3.77Q136.65 4.83 136.83 6.11L136.83 6.11L136.83 6.11Q136.92 6.76 137.18 7.16L137.18 7.16L137.18 7.16Q136.77 7.38 136.47 7.70L136.47 7.70L136.47 7.70Q135.47 8.80 135.58 10.01L135.58 10.01L135.58 10.01Q135.65 10.70 136.13 11.11L136.13 11.11L136.13 11.11Q136.53 11.44 137.35 11.42L137.35 11.42L137.35 11.42Q138.19 11.39 138.89 10.95L138.89 10.95L138.89 10.95Q139.64 10.49 139.95 9.76L139.95 9.76L139.95 9.76Q140.01 9.61 139.73 9.60L139.73 9.60L139.73 9.60Q139.56 9.59 139.36 9.63L139.36 9.63L139.36 9.63Q138.61 9.76 138.51 10.02L138.51 10.02L138.51 10.02Q138.31 10.51 137.96 10.80L137.96 10.80L137.96 10.80Q137.95 10.81 137.94 10.82L137.94 10.82L137.94 10.82Q137.89 10.81 137.88 10.81L137.88 10.81L137.88 10.81Q137.81 10.79 137.73 10.75L137.73 10.75L137.73 10.75Q137.57 10.68 137.41 10.52L137.41 10.52L137.41 10.52Q137.12 10.23 137.05 9.63L137.05 9.63L137.05 9.63Q136.95 8.83 137.58 7.86L137.58 7.86L137.58 7.86Q137.66 7.74 137.76 7.62L137.76 7.62L137.76 7.62Q137.98 7.70 138.25 7.72L138.25 7.72L138.25 7.72Q138.65 7.74 139.15 7.51L139.15 7.51L139.15 7.51Q139.56 7.32 139.41 7.18L139.41 7.18L139.41 7.18Q139.13 6.90 138.70 6.84L138.70 6.84L138.70 6.84Q138.66 6.79 138.63 6.75L138.63 6.75L138.63 6.75Q138.42 6.45 138.31 5.89L138.31 5.89L138.31 5.89Q138.12 4.89 138.30 4.00L138.30 4.00L138.30 4.00Q138.57 2.70 139.34 2.04L139.34 2.04L139.34 2.04Q139.39 2.00 139.49 1.93L139.49 1.93L139.49 1.93Q139.49 1.93 139.49 1.93L139.49 1.93L139.49 1.93Q139.62 1.94 139.60 1.93L139.60 1.93L139.60 1.93Q140.18 2.02 140.07 2.62L140.07 2.62L140.07 2.62Q140.02 2.86 140.65 2.75L140.65 2.75L140.65 2.75Q140.96 2.69 141.21 2.58L141.21 2.58L141.21 2.58Q141.49 2.45 141.51 2.36L141.51 2.36L141.51 2.36Q141.65 1.63 140.96 1.42L140.96 1.42ZM151.22 5.31L151.22 5.31Q151.07 6.24 150.17 7.18L150.17 7.18L150.17 7.18Q149.98 7.38 149.74 7.58L149.74 7.58L149.74 7.58Q149.68 7.63 149.62 7.68L149.62 7.68L149.62 7.68Q149.40 7.59 149.15 7.58L149.15 7.58L149.15 7.58Q149.71 4.74 149.85 2.66L149.85 2.66L149.85 2.66Q150.12 2.80 150.36 2.99L150.36 2.99L150.36 2.99Q150.87 3.39 151.10 4.03L151.10 4.03L151.10 4.03Q151.33 4.65 151.22 5.31L151.22 5.31ZM148.24 2.40L148.24 2.40Q148.24 2.40 148.26 2.39L148.26 2.39L148.26 2.39Q148.25 2.40 148.24 2.40L148.24 2.40ZM153.18 11.42L153.18 11.42Q152.45 10.88 150.92 8.99L150.92 8.99L150.92 8.99Q150.25 8.17 150.13 8.05L150.13 8.05L150.13 8.05Q150.59 7.84 151.02 7.50L151.02 7.50L151.02 7.50Q152.22 6.56 152.58 5.41L152.58 5.41L152.58 5.41Q152.82 4.60 152.62 3.84L152.62 3.84L152.62 3.84Q152.41 3.07 151.79 2.53L151.79 2.53L151.79 2.53Q150.54 1.46 148.47 1.88L148.47 1.88L148.47 1.88Q148.34 1.91 148.14 1.96L148.14 1.96L148.14 1.96Q147.40 2.14 147.46 2.37L147.46 2.37L147.46 2.37Q147.53 2.58 148.24 2.40L148.24 2.40L148.24 2.40Q148.31 2.39 148.35 2.38L148.35 2.38L148.35 2.38Q148.39 2.37 148.43 2.37L148.43 2.37L148.43 2.37Q148.31 5.11 147.08 10.79L147.08 10.79L147.08 10.79Q147.02 11.04 147.66 10.92L147.66 10.92L147.66 10.92Q147.96 10.87 148.22 10.75L148.22 10.75L148.22 10.75Q148.50 10.62 148.52 10.53L148.52 10.53L148.52 10.53Q148.81 9.17 148.91 8.72L148.91 8.72L148.91 8.72Q148.91 8.72 148.91 8.72L148.91 8.72L148.91 8.72Q148.92 8.72 148.92 8.72L148.92 8.72L148.92 8.72Q149.03 8.85 149.71 9.70L149.71 9.70L149.71 9.70Q151.03 11.34 151.80 11.92L151.80 11.92L151.80 11.92Q152.02 12.09 152.74 11.83L152.74 11.83L152.74 11.83Q152.93 11.76 153.07 11.67L153.07 11.67L153.07 11.67Q153.32 11.52 153.18 11.42L153.18 11.42ZM164.69 5.50L164.69 5.50Q165.14 4.74 165.35 3.53L165.35 3.53L165.35 3.53Q165.59 2.15 165.09 1.57L165.09 1.57L165.09 1.57Q164.80 1.22 164.05 1.27L164.05 1.27L164.05 1.27Q163.11 1.33 162.22 1.85L162.22 1.85L162.22 1.85Q160.97 2.59 160.36 4.34L160.36 4.34L160.36 4.34Q159.74 6.10 160.36 7.18L160.36 7.18L160.36 7.18Q160.65 7.68 162.03 8.17L162.03 8.17L162.03 8.17Q162.59 8.37 162.80 8.48L162.80 8.48L162.80 8.48Q163.24 8.74 163.32 9.11L163.32 9.11L163.32 9.11Q163.42 9.50 163.08 10.17L163.08 10.17L163.08 10.17Q162.90 10.51 162.62 10.76L162.62 10.76L162.62 10.76Q162.50 10.87 162.35 10.97L162.35 10.97L162.35 10.97Q162.27 11.02 162.25 11.03L162.25 11.03L162.25 11.03Q162.19 11.07 162.13 11.09L162.13 11.09L162.13 11.09Q162.22 11.05 162.10 11.10L162.10 11.10L162.10 11.10Q162.11 11.10 162.17 11.09L162.17 11.09L162.17 11.09Q162.13 11.09 162.08 11.09L162.08 11.09L162.08 11.09Q162.07 11.10 161.98 11.09L161.98 11.09L161.98 11.09Q161.93 11.09 161.78 11.05L161.78 11.05L161.78 11.05Q161.42 10.97 161.12 10.64L161.12 10.64L161.12 10.64Q160.90 10.39 160.82 9.93L160.82 9.93L160.82 9.93Q160.71 9.44 160.94 9.28L160.94 9.28L160.94 9.28Q161.14 9.13 161.12 9.06L161.12 9.06L161.12 9.06Q161.09 8.97 160.86 8.96L160.86 8.96L160.86 8.96Q160.23 8.95 159.82 9.24L159.82 9.24L159.82 9.24Q159.43 9.53 159.36 9.86L159.36 9.86L159.36 9.86Q159.28 10.20 159.43 10.62L159.43 10.62L159.43 10.62Q159.71 11.36 160.58 11.61L160.58 11.61L160.58 11.61Q161.46 11.87 162.74 11.37L162.74 11.37L162.74 11.37Q163.75 10.96 164.32 10.24L164.32 10.24L164.32 10.24Q164.69 9.76 164.78 9.24L164.78 9.24L164.78 9.24Q164.88 8.62 164.50 8.23L164.50 8.23L164.50 8.23Q164.23 7.96 163.67 7.75L163.67 7.75L163.67 7.75Q163.52 7.70 163.21 7.59L163.21 7.59L163.21 7.59Q162.91 7.50 162.78 7.44L162.78 7.44L162.78 7.44Q162.25 7.23 161.97 6.97L161.97 6.97L161.97 6.97Q161.67 6.69 161.57 5.96L161.57 5.96L161.57 5.96Q161.37 4.53 162.32 2.97L162.32 2.97L162.32 2.97Q162.74 2.29 163.24 1.95L163.24 1.95L163.24 1.95Q163.29 1.91 163.39 1.86L163.39 1.86L163.39 1.86Q163.38 1.86 163.43 1.84L163.43 1.84L163.43 1.84Q163.42 1.84 163.46 1.83L163.46 1.83L163.46 1.83Q163.43 1.84 163.47 1.83L163.47 1.83L163.47 1.83Q163.40 1.85 163.32 1.85L163.32 1.85L163.32 1.85Q163.34 1.85 163.33 1.85L163.33 1.85L163.35 1.85L163.35 1.85Q163.41 1.86 163.49 1.89L163.49 1.89L163.49 1.89Q163.50 1.89 163.60 1.96L163.60 1.96L163.60 1.96Q163.67 2.01 163.71 2.06L163.71 2.06L163.71 2.06Q163.82 2.20 163.89 2.45L163.89 2.45L163.89 2.45Q164.01 2.84 163.95 3.49L163.95 3.49L163.95 3.49Q163.82 4.81 163.25 5.76L163.25 5.76L163.25 5.76Q163.16 5.90 163.47 5.91L163.47 5.91L163.47 5.91Q163.67 5.92 163.83 5.89L163.83 5.89L163.83 5.89Q164.53 5.76 164.69 5.50L164.69 5.50Z"></path></g></svg>